# xmcd
#
# Track frame offsets:
#	151
#	10721
#	24314
#	36535
#	46499
#	57892
#	67752
#	80154
#	91099
#	102671
#	111713
#	123577
#	131792
#	141379
#	155294
#	165726
#	174680
#	187063
#	201423
#	208169
#
# Disc length: 2883 seconds
#
# Revision: 0
# Processed by: cddbd v1.5.1PL0 Copyright (c) Steve Scherf et al.
# Submitted via: EasyCDDAExtractor 8.1.4.1
#
DISCID=2f0b4114
DTITLE=Willie Nelson - 20 Track Collection
DYEAR=1900
DGENRE=Country
TTITLE0=Blame It On The Times
TTITLE1=Everything But You
TTITLE2=Happiness Lives Next Door
TTITLE3=I Didn't Sleep A Wink
TTITLE4=I'm Gonna Lose A Lot Of Teardrops
TTITLE5=Let's Pretend
TTITLE6=Shelter Of Your Arms
TTITLE7=Touch Me
TTITLE8=Is There Something On Your Mind?
TTITLE9=Why Are You Picking On Me
TTITLE10=The Last Letter
TTITLE11=Things To Remember
TTITLE12=Building Heartaches
TTITLE13=Home Is Where You're Happy
TTITLE14=Broken Promises
TTITLE15=The Ghost
TTITLE16=I Can't Find The Time
TTITLE17=Rainy Day Blues
TTITLE18=Both Ends Of The Candle
TTITLE19=Half A Man
EXTD=
EXTT0=
EXTT1=
EXTT2=
EXTT3=
EXTT4=
EXTT5=
EXTT6=
EXTT7=
EXTT8=
EXTT9=
EXTT10=
EXTT11=
EXTT12=
EXTT13=
EXTT14=
EXTT15=
EXTT16=
EXTT17=
EXTT18=
EXTT19=
PLAYORDER=
